<?xml version="1.0" standalone="no"?>
<!DOCTYPE svg PUBLIC "-//W3C//DTD SVG 20010904//EN"
 "http://www.w3.org/TR/2001/REC-SVG-20010904/DTD/svg10.dtd">
<svg version="1.0" xmlns="http://www.w3.org/2000/svg"
 width="663.000000pt" height="576.000000pt" viewBox="0 0 663.000000 576.000000"
 preserveAspectRatio="xMidYMid meet">
<metadata>
Created by potrace 1.10, written by Peter Selinger 2001-2011
</metadata>
<g transform="translate(0.000000,576.000000) scale(0.100000,-0.100000)"
fill="#000000" stroke="none">
<path d="M2900 4855 c0 -8 5 -15 10 -15 6 0 10 7 10 15 0 8 -4 15 -10 15 -5 0
-10 -7 -10 -15z"/>
<path d="M3010 4805 c7 -8 16 -15 21 -15 5 0 9 7 9 15 0 9 -9 15 -21 15 -18 0
-19 -2 -9 -15z"/>
<path d="M2950 4793 c0 -25 27 -74 44 -79 12 -4 28 -13 37 -20 8 -8 38 -17 65
-20 27 -4 58 -13 69 -20 11 -8 34 -14 52 -14 17 0 35 -4 38 -10 3 -5 15 -10
26 -10 11 0 33 -10 49 -22 24 -17 30 -29 30 -59 0 -33 -6 -41 -52 -76 -29 -21
-73 -47 -98 -58 -25 -11 -58 -29 -75 -41 -16 -12 -39 -25 -51 -28 -34 -10 -86
-63 -82 -83 2 -10 18 -23 36 -29 17 -5 37 -15 44 -22 7 -7 18 -12 26 -12 22 0
120 -74 126 -95 9 -33 7 -95 -5 -117 -11 -21 -11 -21 20 1 31 22 41 54 21 66
-12 7 25 65 41 65 6 0 9 -12 7 -27 -2 -22 3 -30 25 -41 15 -7 27 -17 27 -23 0
-5 7 -9 15 -9 9 0 15 9 15 25 0 17 -5 25 -18 25 -20 0 -62 50 -62 75 0 21 34
53 61 57 37 5 32 24 -10 37 -22 6 -46 17 -53 24 -16 16 -48 29 -48 19 0 -4 16
-18 35 -32 39 -29 42 -37 18 -56 -27 -20 -45 -17 -38 6 5 17 1 21 -24 26 -16
4 -32 12 -35 20 -7 19 -45 18 -67 -2 -10 -9 -26 -14 -35 -10 -13 5 -8 14 27
46 50 44 56 46 80 24 16 -14 18 -14 31 8 34 62 61 98 72 98 7 0 27 23 45 50
29 45 32 54 21 79 -6 15 -9 39 -6 52 4 18 -2 33 -24 57 -16 17 -34 32 -39 32
-17 0 -23 20 -11 35 11 13 6 15 -36 13 -42 -3 -49 0 -46 15 3 20 -26 24 -34 3
-7 -17 -92 -9 -112 11 -7 7 -32 13 -54 13 -31 0 -41 4 -45 20 -5 18 -43 30
-43 13z m270 -587 c0 -9 -7 -12 -21 -9 -16 4 -17 8 -7 14 19 13 28 11 28 -5z"/>
<path d="M2864 4777 c-7 -20 -2 -47 11 -50 14 -3 19 43 6 56 -7 7 -12 6 -17
-6z"/>
<path d="M2870 4681 c0 -10 7 -24 15 -31 19 -16 19 -36 0 -44 -8 -3 -12 -11
-9 -19 4 -10 21 -13 69 -10 64 4 65 4 65 -21 0 -16 -7 -27 -20 -31 -27 -9 -25
-24 5 -35 14 -5 25 -11 25 -14 0 -2 -16 -14 -36 -25 -34 -20 -38 -21 -54 -6
-14 13 -20 14 -26 4 -4 -7 -2 -15 4 -17 15 -5 16 -32 2 -32 -5 0 -10 -10 -10
-22 0 -42 -12 -68 -31 -68 -10 0 -21 -4 -24 -10 -13 -21 20 -90 66 -138 31
-33 47 -56 43 -66 -4 -10 1 -18 12 -23 10 -4 19 -2 22 5 4 12 32 17 32 6 0 -4
-6 -12 -14 -18 -8 -7 -11 -20 -6 -36 l7 -25 13 28 c20 40 50 32 67 -18 19 -56
29 -62 52 -34 11 13 20 29 21 36 0 17 -65 83 -82 83 -9 0 -21 7 -28 15 -7 8
-21 15 -31 15 -10 0 -44 24 -75 54 l-57 54 15 36 c15 40 103 136 123 136 8 0
15 4 17 8 3 8 100 57 171 86 20 8 37 19 37 24 0 6 -24 15 -52 20 -29 6 -69 15
-88 21 -19 6 -56 16 -83 24 -46 13 -96 54 -110 91 -9 23 -47 21 -47 -3z m180
-171 c0 -5 -7 -10 -15 -10 -8 0 -15 5 -15 10 0 6 7 10 15 10 8 0 15 -4 15 -10z"/>
<path d="M3350 4330 c0 -5 7 -10 15 -10 7 0 18 -6 22 -14 4 -8 20 -18 36 -21
42 -11 35 21 -9 40 -42 17 -64 19 -64 5z"/>
<path d="M3482 4282 c-12 -2 -20 -8 -17 -13 8 -12 55 -12 55 0 0 14 -11 18
-38 13z"/>
<path d="M3485 4192 c-16 -8 -32 -19 -35 -23 -3 -4 -18 -12 -33 -18 -28 -11
-28 -41 0 -41 9 0 26 -12 39 -26 24 -25 44 -25 44 0 0 8 -9 16 -20 19 -26 7
-26 37 0 44 11 3 26 18 34 34 16 32 14 33 -29 11z"/>
<path d="M3475 4031 c-7 -12 12 -24 25 -16 11 7 4 25 -10 25 -5 0 -11 -4 -15
-9z"/>
<path d="M2920 3890 c-129 -4 -287 -12 -350 -18 -63 -7 -137 -14 -165 -16 -66
-5 -240 -33 -290 -45 -22 -6 -57 -11 -77 -11 -20 0 -39 -4 -42 -9 -4 -5 -25
-12 -48 -16 -67 -12 -195 -61 -234 -92 -47 -35 -64 -77 -64 -156 0 -93 19
-279 31 -303 6 -11 11 -36 12 -54 2 -28 -3 -36 -28 -48 -16 -9 -37 -19 -45
-24 -8 -4 -19 -10 -25 -12 -5 -2 -17 -7 -25 -10 -8 -3 -37 -20 -65 -36 -27
-16 -61 -36 -75 -42 -14 -7 -30 -17 -37 -23 -6 -5 -35 -26 -63 -45 -128 -87
-280 -233 -352 -340 -47 -70 -88 -148 -88 -169 0 -7 -6 -27 -14 -44 -27 -64
-36 -135 -37 -287 -1 -183 9 -239 71 -375 13 -27 39 -72 59 -100 20 -27 44
-61 52 -75 22 -34 125 -138 173 -175 22 -16 54 -42 72 -57 17 -16 36 -28 41
-28 4 0 24 -13 43 -28 19 -16 42 -32 50 -36 8 -4 42 -22 75 -41 33 -19 84 -46
112 -61 29 -14 55 -30 58 -35 4 -5 13 -9 22 -9 9 0 39 -11 68 -24 55 -26 121
-52 170 -66 17 -5 62 -19 100 -33 39 -13 97 -32 130 -41 33 -10 80 -23 105
-31 41 -12 85 -21 270 -60 76 -16 240 -38 430 -60 157 -17 806 -21 930 -4 41
5 118 14 170 19 84 8 228 30 387 59 28 5 61 14 72 20 11 6 34 11 51 11 17 0
39 4 49 9 9 5 64 21 122 36 57 14 112 30 121 35 10 6 26 10 36 10 9 0 26 6 37
14 11 7 36 17 55 21 65 14 340 147 478 230 9 6 40 23 67 40 28 16 52 32 55 36
3 3 39 33 80 66 41 33 100 88 130 122 30 34 60 68 67 76 20 21 69 105 102 174
30 61 51 131 71 231 5 25 14 61 19 80 17 54 14 234 -4 277 -8 19 -15 44 -15
54 0 24 -54 138 -96 202 -70 107 -219 262 -303 315 -14 9 -60 41 -101 72 -41
30 -120 77 -175 104 -55 27 -107 52 -115 57 -8 5 -22 12 -30 15 -8 3 -28 11
-45 18 -16 8 -50 21 -75 31 -25 9 -58 22 -75 29 -39 17 -92 36 -130 46 -126
37 -156 47 -164 55 -5 6 -6 62 -2 140 6 99 5 138 -5 163 -14 36 -71 92 -92 92
-8 0 -26 6 -40 14 -55 29 -156 56 -337 90 -148 28 -219 38 -338 46 -66 5 -160
13 -210 19 -121 13 -474 18 -767 11z m820 -63 c69 -2 145 -9 170 -15 41 -10
94 -18 285 -42 75 -9 202 -38 226 -50 10 -6 26 -10 36 -10 27 0 186 -82 198
-102 13 -23 -2 -48 -41 -68 -16 -8 -30 -18 -32 -22 -2 -5 -10 -8 -17 -8 -7 0
-47 -13 -88 -30 -42 -16 -80 -30 -87 -30 -12 0 42 56 60 62 6 2 14 23 17 46 5
40 3 45 -34 80 -47 44 -96 63 -218 87 -92 17 -162 17 -158 1 2 -12 70 -34 143
-46 97 -17 148 -35 187 -66 35 -29 37 -33 25 -56 -19 -36 -118 -73 -227 -86
-57 -7 -60 -8 -60 -34 -1 -15 -3 -29 -5 -32 -3 -2 -95 -11 -205 -20 -110 -9
-240 -21 -290 -27 -108 -12 -911 -3 -1000 11 -33 5 -121 12 -195 16 -298 13
-720 132 -720 202 0 19 31 52 65 70 33 17 200 71 267 86 100 23 236 44 323 51
44 3 108 11 141 16 137 24 782 32 1234 16z m-1968 -356 c24 -15 54 -31 68 -34
14 -3 39 -10 55 -16 83 -30 219 -58 340 -71 50 -5 97 -12 105 -16 8 -3 71 -10
140 -15 69 -5 166 -13 215 -19 115 -12 886 -13 952 0 28 5 104 12 169 15 66 3
155 12 199 20 79 14 192 31 290 44 28 4 66 12 85 19 19 6 68 21 108 33 41 12
90 33 109 46 49 33 65 25 57 -29 -3 -24 -10 -59 -15 -78 -5 -19 -9 -50 -9 -68
0 -31 -7 -60 -46 -187 -30 -100 -92 -233 -143 -310 -24 -36 -31 -40 -62 -37
-179 19 -430 -10 -521 -59 -10 -5 -23 -9 -28 -9 -12 0 -91 -33 -123 -51 -10
-5 -37 -20 -60 -31 -43 -22 -104 -64 -122 -82 -5 -6 -25 -23 -43 -39 l-34 -27
-53 52 c-56 56 -106 87 -194 120 -44 17 -77 21 -177 20 -68 0 -131 -5 -142
-11 -12 -6 -29 -11 -40 -11 -19 0 -73 -15 -183 -51 -54 -17 -92 -33 -169 -68
-39 -18 -160 -98 -175 -116 -26 -31 -44 -23 -132 59 -83 78 -239 258 -256 294
-4 10 -16 31 -26 47 -18 28 -51 91 -65 125 -3 8 -10 22 -15 30 -5 8 -17 35
-26 60 -9 25 -23 60 -31 78 -8 18 -14 47 -14 65 -1 18 -7 43 -15 57 -8 14 -14
39 -15 55 0 17 -7 62 -15 100 -28 133 -19 147 57 96z m2994 -236 c10 -8 34
-15 52 -15 25 0 35 -5 39 -19 4 -16 11 -18 39 -14 19 3 39 1 46 -5 7 -5 58
-27 113 -49 l100 -38 -74 -3 c-44 -2 -82 -9 -95 -17 -11 -8 -37 -15 -57 -15
-20 0 -42 -7 -49 -15 -14 -17 -77 -20 -112 -6 -13 6 -40 13 -61 16 -51 8 -68
47 -36 81 11 12 18 28 14 34 -4 6 -1 17 5 25 7 8 10 21 7 29 -3 8 -3 17 0 20
11 11 49 6 69 -9z m-3046 -184 c0 -9 13 -43 30 -75 27 -55 28 -59 13 -82 -11
-17 -21 -23 -34 -19 -11 4 -19 2 -19 -4 0 -5 -26 -24 -57 -42 -32 -17 -90 -56
-130 -85 -40 -30 -77 -54 -83 -54 -5 0 -10 -4 -10 -10 0 -10 -61 -74 -84 -87
-20 -11 -101 -128 -130 -188 -58 -119 -71 -234 -40 -357 14 -58 41 -126 55
-138 3 -3 19 -27 35 -55 28 -48 177 -205 223 -235 13 -8 42 -29 65 -46 79 -59
297 -174 330 -174 8 0 19 -6 25 -14 6 -8 24 -16 39 -19 31 -5 84 -23 127 -43
17 -8 45 -17 63 -20 18 -4 35 -11 38 -15 3 -5 20 -9 38 -9 18 0 41 -7 52 -15
10 -8 37 -15 59 -15 22 0 49 -7 59 -15 11 -8 37 -15 58 -15 22 0 51 -6 66 -14
15 -7 59 -16 97 -18 39 -3 79 -10 90 -15 34 -18 298 -44 545 -54 345 -15 751
8 950 52 25 5 77 14 115 19 68 8 108 17 209 46 26 8 60 14 75 14 14 1 37 7 51
15 14 8 35 14 46 15 12 0 35 7 50 15 16 8 36 15 45 15 9 0 30 7 45 15 16 8 37
15 46 15 9 0 29 6 45 14 93 47 161 76 176 76 8 0 19 5 22 11 4 5 17 14 28 20
12 5 29 13 37 18 8 5 22 12 30 15 23 9 73 41 122 78 25 18 55 40 68 48 13 8
35 26 49 39 14 13 33 28 41 35 15 10 110 122 158 185 12 16 22 34 22 40 0 6
12 36 27 68 25 54 26 67 26 190 0 104 -4 136 -17 154 -9 13 -16 30 -16 39 0 8
-18 42 -41 75 -35 52 -40 65 -34 95 3 19 9 86 12 148 4 102 3 115 -14 127 -13
11 -14 14 -4 15 24 0 245 -231 271 -283 13 -26 27 -47 32 -47 4 0 8 -7 8 -17
0 -9 11 -39 24 -67 13 -28 29 -78 35 -110 14 -73 14 -238 1 -288 -6 -21 -14
-53 -19 -70 -16 -62 -74 -173 -120 -230 -25 -32 -49 -58 -53 -58 -5 0 -8 -6
-8 -13 0 -13 -81 -93 -151 -149 -19 -14 -53 -42 -77 -62 -24 -20 -65 -46 -92
-58 -27 -12 -51 -30 -53 -40 -4 -12 -15 -18 -35 -18 -16 0 -41 -9 -55 -20 -14
-11 -31 -20 -38 -20 -7 0 -20 -6 -28 -13 -20 -17 -115 -57 -134 -57 -8 0 -22
-9 -32 -20 -10 -11 -25 -20 -34 -20 -9 0 -26 -6 -37 -14 -11 -8 -38 -17 -60
-21 -21 -3 -55 -12 -74 -19 -73 -27 -166 -55 -205 -61 -22 -4 -60 -14 -85 -22
-51 -17 -241 -58 -340 -74 -36 -5 -92 -14 -125 -19 -67 -10 -230 -24 -465 -40
-156 -10 -312 -7 -558 11 -73 5 -137 7 -141 4 -5 -2 -33 2 -62 9 -30 8 -97 19
-149 25 -185 21 -414 65 -540 104 -19 5 -46 11 -60 13 -34 3 -143 41 -206 70
-28 13 -57 24 -65 24 -8 0 -23 7 -33 15 -11 8 -32 15 -47 15 -14 0 -32 7 -39
15 -7 8 -18 15 -25 15 -7 0 -18 7 -25 16 -7 8 -23 14 -35 12 -18 -2 -57 18
-195 103 -118 71 -150 93 -165 109 -10 11 -23 20 -28 20 -19 0 -247 227 -247
246 0 6 -11 24 -25 40 -37 42 -87 142 -98 194 -5 25 -12 108 -14 185 -4 145
-5 140 43 252 8 17 14 40 14 50 0 27 11 35 28 20 13 -10 15 -8 9 20 -6 33 0
45 61 110 12 13 22 27 22 31 0 4 36 45 79 91 68 72 82 82 102 76 21 -7 22 -6
11 7 -10 13 -8 19 15 37 46 35 113 81 117 81 3 0 24 12 48 28 76 48 82 51 153
85 106 51 115 53 115 18z m3522 -30 c118 -20 232 -100 279 -198 19 -40 23 -63
22 -146 -1 -97 -9 -130 -49 -210 -8 -16 -14 -33 -14 -38 0 -21 -120 -170 -201
-249 -99 -98 -150 -136 -234 -178 -166 -84 -272 -111 -472 -119 -153 -6 -162
0 -95 65 57 54 104 121 140 197 55 116 57 125 57 255 l0 125 -44 66 c-42 64
-120 129 -155 129 -19 0 -21 25 -3 39 6 6 30 25 52 44 22 18 47 37 55 40 8 4
29 16 45 27 17 11 37 22 45 26 8 3 22 10 30 15 8 5 22 12 30 15 8 3 28 12 43
20 16 7 35 14 42 14 8 0 29 6 47 14 107 45 269 65 380 47z m-553 -12 c38 -13
42 -39 6 -39 -14 0 -43 -11 -65 -25 -36 -23 -39 -23 -28 -5 7 11 17 20 21 20
5 0 7 11 3 24 -9 38 7 44 63 25z m-2858 -195 c8 -16 25 -45 37 -64 12 -19 22
-45 22 -57 0 -13 6 -23 14 -23 7 0 40 -31 71 -70 31 -38 61 -70 66 -70 20 0 8
-41 -15 -49 -13 -5 -26 -17 -29 -25 -4 -9 -15 -16 -25 -16 -26 0 -34 -11 -21
-27 17 -20 43 -16 69 12 31 33 37 32 54 -10 16 -36 40 -46 50 -20 3 8 10 15
16 15 16 0 12 -40 -5 -46 -8 -4 -15 -16 -15 -29 0 -13 -7 -26 -15 -29 -10 -3
-15 -15 -13 -32 2 -21 -4 -30 -31 -44 -18 -10 -40 -28 -48 -39 -18 -27 -30
-27 -38 0 -5 16 -13 20 -31 16 -17 -3 -25 1 -29 15 -4 10 -20 25 -36 33 -25
13 -29 21 -29 55 0 28 -4 40 -15 40 -17 0 -35 -30 -35 -58 0 -23 58 -88 88
-97 12 -3 22 -12 22 -18 0 -7 12 -18 28 -25 53 -25 72 -37 77 -50 6 -17 -24
-60 -50 -68 -11 -3 -37 -25 -57 -47 -42 -45 -50 -88 -23 -123 10 -14 14 -48
15 -126 0 -89 3 -113 20 -140 11 -18 20 -38 20 -44 0 -16 55 -74 69 -74 7 0
14 -7 17 -15 4 -8 12 -15 19 -15 6 0 20 -9 30 -20 10 -11 26 -20 36 -20 25 0
69 -20 102 -47 18 -14 42 -23 65 -23 20 0 45 -7 54 -14 13 -9 48 -12 135 -9
65 2 135 4 155 4 20 0 40 4 43 9 3 6 16 10 28 10 12 0 31 7 41 15 11 8 26 15
35 15 8 0 22 7 32 16 13 12 22 13 38 5 13 -7 22 -8 26 -1 3 5 16 10 28 10 12
0 34 11 49 25 15 14 34 25 43 25 8 0 15 5 15 11 0 6 6 9 14 6 19 -8 136 91
136 115 0 15 5 19 20 15 11 -3 23 -1 26 4 6 11 55 12 70 1 18 -12 43 -72 37
-87 -3 -9 3 -18 13 -22 11 -3 36 -17 56 -30 22 -13 52 -22 70 -22 18 1 62 -2
98 -6 36 -3 101 -1 145 5 44 6 98 13 120 16 47 6 125 40 125 54 0 6 15 10 34
10 19 0 38 5 41 10 3 6 17 10 31 10 14 0 46 11 72 25 26 14 52 25 59 25 6 0
33 18 60 40 26 22 53 45 60 50 16 13 46 13 60 -1 9 -9 18 -8 37 5 27 17 30 24
20 50 -9 23 -34 20 -34 -4 0 -21 -15 -27 -25 -10 -9 15 -45 12 -51 -5 -5 -13
-34 -22 -34 -11 0 12 47 54 68 60 12 4 22 15 22 25 0 10 14 24 33 33 28 13 36
14 52 2 10 -8 27 -14 37 -14 11 0 18 -7 18 -20 0 -11 7 -20 15 -20 8 0 15 5
15 10 0 14 37 12 43 -2 3 -10 8 -8 18 4 17 20 148 43 163 28 12 -12 46 -13 46
-2 0 11 64 39 108 47 24 5 34 3 38 -9 4 -9 17 -16 33 -16 25 1 25 1 7 15 -16
12 -17 17 -6 30 7 8 19 15 26 15 20 0 114 50 114 61 0 5 6 9 14 9 7 0 19 7 26
15 7 8 18 15 26 15 17 0 69 36 114 79 19 18 45 40 58 48 12 8 22 21 22 27 0 6
14 20 30 29 17 10 30 27 30 38 0 10 7 19 15 19 8 0 15 -5 15 -11 0 -5 5 -7 10
-4 8 5 8 11 0 20 -17 21 9 31 28 11 14 -14 15 -20 4 -37 -15 -23 -7 -59 13
-59 19 0 24 11 30 62 7 53 -14 89 -40 68 -23 -19 -19 -6 31 91 40 79 64 108
64 80 0 -5 6 -16 13 -23 16 -17 40 -71 59 -129 17 -54 16 -245 -1 -262 -6 -6
-11 -19 -11 -28 0 -10 -6 -24 -14 -31 -7 -8 -17 -25 -21 -38 -4 -14 -18 -38
-31 -53 -13 -16 -24 -32 -24 -37 0 -16 -158 -168 -220 -212 -104 -72 -242
-150 -345 -194 -119 -51 -344 -128 -408 -139 -20 -4 -40 -11 -43 -16 -3 -5
-20 -9 -38 -9 -19 0 -50 -7 -69 -15 -20 -8 -53 -15 -74 -15 -21 -1 -49 -7 -63
-15 -14 -8 -51 -14 -82 -15 -31 0 -69 -5 -85 -11 -15 -6 -73 -15 -128 -20 -55
-5 -145 -13 -200 -18 -122 -13 -665 -12 -755 0 -36 5 -117 13 -180 19 -63 5
-131 14 -150 19 -19 6 -56 11 -81 11 -26 0 -65 7 -88 14 -22 8 -68 18 -101 22
-33 4 -63 11 -66 15 -3 5 -20 9 -38 9 -18 0 -41 7 -52 15 -10 8 -35 15 -55 15
-19 0 -39 4 -45 10 -5 5 -41 21 -79 34 -39 14 -95 35 -125 47 -30 12 -67 23
-82 26 -15 3 -33 11 -39 19 -6 8 -22 14 -35 14 -12 0 -26 5 -29 11 -4 5 -17
15 -28 20 -12 5 -35 18 -52 29 -16 11 -37 23 -45 26 -8 3 -19 8 -25 10 -5 2
-23 13 -40 24 -16 11 -40 24 -51 29 -12 5 -23 13 -25 18 -2 4 -26 26 -54 48
-65 52 -184 176 -185 193 0 6 -4 12 -8 12 -13 0 -75 141 -85 195 -20 102 -10
207 27 285 18 37 24 47 73 125 30 47 161 177 215 213 14 9 45 30 69 46 57 39
191 106 204 102 6 -1 17 -15 26 -32z m2504 -112 c163 -59 245 -167 245 -324 0
-164 -85 -320 -284 -524 -162 -165 -436 -274 -688 -274 -135 0 -198 14 -280
63 -26 15 -50 27 -55 27 -4 0 -16 11 -25 24 -16 22 -15 24 36 74 119 114 207
291 221 442 5 57 2 90 -22 202 -4 22 0 29 23 41 16 8 40 25 54 37 55 49 219
140 252 140 10 0 18 5 18 10 0 6 10 10 23 10 12 0 35 7 51 15 16 8 47 18 70
21 22 3 50 10 61 14 54 25 235 26 300 2z m-1170 -120 c76 -27 111 -48 159 -97
70 -69 88 -120 88 -243 0 -73 -4 -115 -16 -143 -9 -21 -24 -58 -33 -81 -32
-78 -112 -185 -224 -297 -60 -61 -114 -111 -119 -111 -5 0 -16 -7 -24 -16 -17
-16 -181 -102 -231 -120 -94 -34 -201 -56 -331 -69 -89 -9 -239 22 -314 66 -8
5 -25 13 -36 18 -12 5 -41 32 -65 60 -39 45 -45 59 -54 123 -30 212 132 517
358 673 32 22 67 48 78 57 18 15 102 57 230 117 25 11 55 21 66 21 10 0 23 4
29 9 5 5 34 15 64 21 30 6 71 15 90 19 68 17 232 12 285 -7z m-1077 -384 c-6
-18 -28 -21 -28 -4 0 9 7 16 16 16 9 0 14 -5 12 -12z m2134 -513 c0 -5 -5 -11
-11 -13 -6 -2 -11 4 -11 13 0 9 5 15 11 13 6 -2 11 -8 11 -13z m-3111 -152
c37 -31 49 -44 49 -54 0 -17 -18 -9 -49 23 -43 44 -43 66 0 31z m2744 -23 c3
-5 -3 -10 -14 -10 -12 0 -21 5 -21 10 0 6 6 10 14 10 8 0 18 -4 21 -10z m-415
-40 c0 -5 -6 -10 -14 -10 -8 0 -18 5 -21 10 -3 6 3 10 14 10 12 0 21 -4 21
-10z m-2223 -29 c3 -11 16 -22 29 -25 13 -4 28 -15 34 -26 6 -11 18 -20 28
-20 9 0 30 -14 46 -30 16 -17 37 -30 47 -30 10 0 24 -8 31 -18 7 -10 35 -27
61 -37 26 -10 52 -26 57 -35 5 -9 27 -22 49 -29 43 -12 59 -27 44 -42 -10 -10
-93 26 -93 41 0 12 -53 40 -77 40 -10 0 -29 12 -42 25 -13 14 -29 25 -36 25
-6 0 -23 9 -36 21 -13 11 -36 27 -51 35 -16 8 -28 19 -28 24 0 5 -10 12 -22
16 -18 5 -88 69 -88 80 0 2 9 4 21 4 12 0 23 -8 26 -19z m1713 4 c0 -8 -7 -15
-15 -15 -16 0 -20 12 -8 23 11 12 23 8 23 -8z m2560 -144 c0 -11 -31 -24 -39
-16 -3 3 1 10 9 15 19 12 30 12 30 1z m-80 -56 c0 -9 -9 -15 -25 -15 -16 0
-25 6 -25 15 0 9 9 15 25 15 16 0 25 -6 25 -15z m-70 -35 c0 -5 -8 -10 -18
-10 -10 0 -29 -13 -42 -30 -19 -22 -33 -29 -62 -30 -22 0 -40 -6 -45 -15 -11
-18 -54 -24 -60 -8 -3 7 8 15 24 19 15 4 33 10 38 14 6 4 24 11 41 14 17 4 46
18 65 31 36 26 59 31 59 15z m-3616 -65 c3 -8 14 -15 24 -15 10 0 27 -7 38
-15 10 -8 26 -15 34 -15 15 -1 60 -33 60 -44 0 -15 -44 -4 -99 25 -34 16 -70
32 -81 34 -29 6 -40 14 -40 31 0 19 56 19 64 -1z m3366 -55 c0 -5 -14 -10 -30
-10 -18 0 -33 -6 -36 -15 -4 -8 -11 -15 -18 -15 -6 0 -23 -6 -37 -14 -35 -18
-99 -29 -99 -17 0 5 14 13 32 16 17 4 56 20 87 36 56 29 101 38 101 19z
m-3148 -30 c2 -5 30 -17 63 -25 33 -9 71 -24 85 -33 14 -9 43 -17 65 -18 40 0
258 -55 292 -72 10 -5 54 -13 98 -16 44 -4 98 -12 120 -18 22 -6 83 -14 135
-19 52 -4 131 -13 175 -19 108 -16 882 -15 950 0 28 6 88 15 135 20 47 5 112
13 145 19 33 5 86 10 118 10 32 1 68 7 80 15 12 8 43 17 69 20 26 4 50 11 53
17 4 5 23 9 43 9 20 1 48 7 62 15 14 8 41 15 60 15 19 0 46 7 60 15 27 16 100
20 100 6 0 -12 -77 -39 -138 -46 -30 -4 -66 -13 -80 -21 -15 -8 -38 -14 -53
-14 -14 0 -29 -4 -35 -10 -5 -5 -41 -14 -79 -21 -39 -6 -108 -17 -155 -25
-236 -39 -439 -64 -580 -72 -177 -10 -544 -6 -680 8 -63 6 -144 13 -180 15
-36 2 -110 10 -165 19 -55 9 -140 22 -190 30 -136 21 -264 56 -290 78 -5 4
-23 8 -40 8 -28 0 -85 16 -165 46 -19 7 -54 16 -78 19 -33 5 -42 11 -38 22 3
8 6 19 6 24 0 12 27 12 32 -1z"/>
<path d="M3754 3783 c-15 -7 -37 -13 -51 -13 -14 0 -42 -13 -63 -30 -21 -16
-46 -30 -57 -30 -11 0 -28 -7 -39 -15 -27 -20 -39 -19 -69 10 l-27 24 29 6
c49 11 55 15 51 32 -2 13 -14 19 -40 21 -33 3 -38 0 -44 -23 -6 -24 -10 -26
-38 -20 -111 23 -236 28 -348 11 -132 -19 -338 -21 -457 -5 -100 14 -110 8
-92 -50 10 -35 17 -42 50 -51 21 -5 58 -7 82 -4 42 5 123 -3 254 -25 33 -6 98
-13 145 -15 47 -3 106 -12 130 -20 25 -8 68 -18 95 -21 43 -6 53 -4 69 14 11
12 26 21 34 21 9 0 12 3 8 8 -4 4 -42 8 -84 8 -42 1 -97 9 -122 18 -28 10 -78
16 -130 16 -47 0 -101 5 -120 11 -19 7 -105 15 -190 18 -93 4 -155 10 -155 16
0 16 682 15 703 -2 24 -17 52 -16 74 4 17 15 21 15 64 -6 47 -24 48 -27 12
-45 -27 -13 -46 -71 -47 -140 -1 -63 30 -96 90 -96 28 0 39 4 36 13 -2 6 -17
12 -32 12 -39 1 -49 39 -34 121 10 50 17 63 41 77 16 9 40 17 53 17 14 0 39 6
57 14 18 8 40 17 48 21 20 8 55 28 71 42 8 6 43 14 79 18 52 5 69 4 78 -8 11
-12 5 -20 -38 -46 -28 -17 -55 -31 -61 -31 -6 0 -22 -9 -36 -20 -14 -11 -32
-20 -39 -20 -8 0 -14 -4 -14 -10 0 -5 -12 -13 -27 -16 -34 -9 -90 -45 -98 -64
-3 -8 -3 -38 1 -68 7 -55 24 -72 75 -72 24 0 27 51 3 70 -8 7 -14 25 -12 38 2
20 17 33 68 59 35 18 71 40 80 48 9 8 24 15 32 15 9 0 21 7 28 15 7 8 17 15
23 15 5 0 30 15 54 33 33 25 42 38 40 57 -1 18 -9 26 -27 28 -14 2 -31 9 -38
15 -20 16 -98 16 -128 0z"/>
<path d="M2195 3725 c-27 -7 -69 -14 -92 -14 -41 -1 -110 -29 -145 -59 -27
-23 -22 -65 10 -93 35 -31 72 -54 97 -62 11 -3 51 -17 89 -31 38 -14 81 -26
95 -26 14 0 41 -9 59 -20 25 -16 37 -18 52 -10 22 12 27 49 8 54 -37 10 -117
29 -148 36 -44 10 -97 28 -133 46 -16 8 -34 14 -40 14 -7 1 -24 11 -40 23
l-27 23 22 20 c33 30 121 54 192 54 34 0 67 5 72 10 10 10 57 18 112 19 13 1
22 7 22 16 0 12 -15 15 -77 14 -43 -1 -100 -7 -128 -14z"/>
<path d="M3838 3599 c-22 -12 -23 -35 -4 -42 8 -3 31 -3 50 0 26 4 36 11 36
23 0 29 -48 39 -82 19z"/>
<path d="M2645 3586 c-17 -14 -18 -17 -5 -26 8 -6 29 -9 45 -8 22 2 30 8 30
23 0 26 -42 32 -70 11z"/>
<path d="M4013 3593 c-18 -7 -16 -33 2 -33 8 0 15 9 15 20 0 11 -1 20 -2 19
-2 0 -9 -3 -15 -6z"/>
<path d="M4098 3589 c-10 -5 -18 -19 -18 -31 0 -19 4 -20 46 -14 56 7 64 12
64 37 0 15 -7 19 -37 19 -21 0 -46 -5 -55 -11z"/>
<path d="M3466 3581 c-3 -5 0 -14 8 -20 15 -13 66 1 66 19 0 12 -67 14 -74 1z"/>
<path d="M2955 3550 c-3 -5 -2 -18 4 -28 7 -14 18 -17 45 -14 37 4 62 24 51
42 -8 13 -92 13 -100 0z"/>
<path d="M3721 3516 c-24 -28 -6 -47 41 -44 38 3 43 6 43 28 0 21 -5 25 -36
28 -23 2 -40 -2 -48 -12z"/>
<path d="M3939 3119 c-11 -11 -18 -23 -15 -26 9 -10 66 19 66 33 0 21 -27 17
-51 -7z"/>
<path d="M3835 3019 c-4 -6 -5 -13 -2 -16 7 -7 27 6 27 18 0 12 -17 12 -25 -2z"/>
<path d="M3772 2988 c-17 -17 -15 -28 7 -28 16 0 31 18 31 36 0 9 -27 3 -38
-8z"/>
<path d="M3718 2953 c-9 -3 -20 -13 -23 -24 -4 -11 -16 -24 -28 -30 -12 -5
-29 -13 -37 -18 -8 -5 -23 -12 -32 -15 -10 -3 -18 -10 -18 -16 0 -16 47 -12
54 5 3 8 14 15 25 15 11 0 23 5 26 11 4 5 18 14 31 19 42 16 44 62 2 53z"/>
<path d="M3518 2819 c-10 -5 -18 -17 -18 -25 0 -12 7 -14 33 -9 41 9 47 13 47
31 0 16 -36 18 -62 3z"/>
<path d="M3434 2766 c-10 -8 -16 -18 -11 -22 10 -10 59 8 65 24 5 17 -30 15
-54 -2z"/>
<path d="M3340 2720 l-25 -20 31 0 c18 0 38 8 49 20 18 19 17 20 -6 20 -13 0
-35 -9 -49 -20z"/>
<path d="M4905 3110 c-10 -11 -15 -20 -11 -20 14 0 46 21 46 30 0 16 -16 11
-35 -10z"/>
<path d="M1645 3010 c-8 -13 15 -24 27 -12 6 6 4 11 -6 15 -8 3 -18 2 -21 -3z"/>
<path d="M5256 2901 c-9 -14 1 -31 17 -31 15 0 97 -83 97 -99 0 -6 7 -23 16
-37 12 -18 15 -38 12 -72 -6 -50 -2 -72 13 -72 5 0 9 16 9 35 0 24 6 37 20 45
20 11 29 60 10 60 -5 0 -10 7 -10 15 0 21 -28 76 -49 95 -53 51 -123 82 -135
61z"/>
<path d="M4874 2703 c-19 -25 -23 -27 -49 -15 -60 27 -89 -22 -40 -68 24 -23
25 -23 45 -5 11 10 20 28 20 39 1 21 1 21 19 -1 25 -30 56 -29 86 3 19 20 22
31 15 44 -21 38 -69 40 -96 3z"/>
<path d="M4996 2584 c-19 -50 4 -80 45 -58 31 16 34 25 19 55 -13 23 -55 25
-64 3z"/>
<path d="M5382 2550 c-6 -11 -12 -24 -12 -30 0 -5 -16 -30 -35 -56 -19 -25
-35 -50 -35 -55 0 -16 -73 -99 -87 -99 -8 0 -16 -7 -20 -15 -3 -9 -18 -22 -34
-31 -16 -8 -29 -21 -29 -29 0 -8 -8 -15 -18 -15 -11 0 -27 -9 -37 -20 -10 -11
-24 -20 -30 -20 -7 0 -18 -7 -25 -15 -7 -8 -20 -15 -30 -15 -9 0 -25 -9 -35
-20 -10 -11 -28 -20 -39 -20 -12 0 -30 -7 -40 -15 -11 -8 -31 -15 -44 -15 -13
0 -30 -7 -39 -16 -9 -8 -22 -13 -30 -10 -8 4 -35 -3 -60 -14 -25 -11 -52 -20
-60 -20 -11 0 -11 -4 -3 -20 9 -17 20 -19 83 -17 63 2 72 4 70 20 -1 15 4 17
23 13 19 -5 26 -2 33 17 6 16 20 26 42 31 18 3 40 12 48 19 9 8 38 22 64 31
29 11 53 27 59 41 7 16 16 21 33 18 17 -4 24 1 29 21 5 19 13 26 30 26 15 0
26 7 29 20 3 12 14 20 26 20 12 0 24 8 28 18 3 9 29 44 58 77 40 47 125 190
125 211 0 12 -27 1 -38 -16z m-617 -540 c-3 -5 -15 -10 -26 -10 -10 0 -19 5
-19 10 0 6 12 10 26 10 14 0 23 -4 19 -10z"/>
<path d="M4783 2543 c-20 -7 -15 -51 6 -62 24 -13 44 8 39 41 -3 23 -22 31
-45 21z"/>
<path d="M4873 2494 c-36 -40 -28 -93 10 -78 22 8 70 81 62 93 -11 19 -49 11
-72 -15z"/>
<path d="M4908 2328 c-10 -29 4 -58 28 -58 25 0 49 33 40 56 -7 17 -63 19 -68
2z"/>
<path d="M4818 2305 c-15 -33 5 -57 40 -48 19 5 23 11 20 37 -4 42 -42 49 -60
11z"/>
<path d="M1878 2394 c-11 -11 -14 -22 -8 -33 5 -9 12 -29 15 -45 l6 -29 29 34
c34 40 37 64 11 79 -26 14 -34 13 -53 -6z"/>
<path d="M5455 2141 c-3 -5 -1 -12 5 -16 18 -11 11 -35 -12 -44 -13 -5 -45
-32 -73 -60 -27 -28 -55 -51 -62 -51 -7 0 -13 -7 -13 -15 0 -10 -10 -15 -34
-15 -21 0 -36 -6 -40 -15 -3 -8 -11 -15 -19 -15 -18 0 -61 -46 -53 -58 8 -13
46 -4 71 17 11 10 53 39 93 65 39 27 72 52 72 57 0 5 13 15 28 23 15 8 34 26
41 40 8 14 22 28 33 32 10 3 18 11 18 19 0 17 -47 48 -55 36z"/>
<path d="M5043 1827 c-29 -6 -53 -16 -53 -23 0 -27 -59 -32 -101 -7 -42 25
-44 11 -5 -30 37 -39 63 -41 102 -5 11 10 47 23 79 28 65 11 70 13 62 35 -7
16 -8 17 -84 2z"/>
<path d="M4665 1780 c-4 -6 8 -10 29 -10 20 0 36 5 36 10 0 6 -13 10 -29 10
-17 0 -33 -4 -36 -10z"/>
<path d="M4435 1750 c-4 -6 -2 -17 5 -25 7 -9 8 -15 0 -20 -13 -8 -13 -25 0
-25 6 0 10 7 10 16 0 12 7 14 30 9 19 -4 36 -2 45 5 8 6 18 9 23 6 5 -3 40
-12 79 -20 62 -13 77 -13 118 0 26 7 64 11 84 8 24 -4 42 0 56 10 20 15 20 15
-1 16 -11 0 -29 7 -40 15 -25 19 -68 19 -84 0 -17 -20 -81 -19 -118 2 -26 15
-34 15 -55 4 -14 -7 -30 -10 -36 -7 -5 4 -19 1 -29 -5 -14 -9 -25 -8 -50 5
-20 10 -33 12 -37 6z"/>
<path d="M4318 2627 c12 -13 22 -28 22 -34 0 -6 6 -16 13 -22 11 -8 16 -5 25
14 11 25 1 42 -17 30 -5 -3 -12 4 -16 15 -4 12 -15 20 -27 20 l-21 0 21 -23z"/>
<path d="M4388 2563 c-14 -26 -14 -30 1 -59 12 -21 16 -54 16 -110 0 -66 -5
-88 -28 -132 -15 -30 -27 -60 -27 -68 0 -8 -6 -14 -13 -14 -14 0 -57 -52 -57
-68 0 -6 -11 -17 -25 -26 -13 -9 -39 -31 -58 -49 -61 -59 -109 -97 -122 -97
-8 0 -21 -8 -31 -17 -10 -10 -27 -23 -38 -30 -59 -33 -101 -53 -117 -53 -9 0
-22 -7 -29 -15 -7 -8 -20 -15 -30 -15 -10 0 -31 -7 -46 -15 -16 -8 -42 -15
-57 -15 -15 0 -38 -6 -50 -14 -12 -7 -46 -14 -75 -14 -30 -1 -59 -5 -65 -10
-7 -5 -45 -9 -86 -10 -40 -1 -76 -3 -79 -6 -14 -14 24 -36 62 -36 23 0 51 -7
62 -15 25 -19 38 -19 30 0 -3 8 -4 15 -3 16 1 0 35 3 76 5 41 3 89 13 105 21
17 9 56 18 86 19 30 2 57 3 59 4 2 0 -4 8 -13 19 -15 17 -15 19 -1 25 9 3 18
-1 21 -9 9 -22 23 -18 34 10 7 20 17 25 43 25 20 0 39 7 50 20 9 11 25 20 36
20 10 0 21 6 24 14 3 8 16 16 28 18 15 2 25 12 29 28 7 27 29 29 43 4 12 -22
28 -6 21 22 -4 16 -1 26 9 30 8 3 17 15 20 26 4 12 10 17 17 13 7 -4 9 -18 5
-32 -5 -20 -2 -24 12 -21 11 2 20 15 23 34 3 16 11 36 18 44 7 8 22 28 33 43
12 16 33 33 46 38 21 8 24 13 18 39 -6 28 -4 30 20 30 24 0 26 3 21 24 -4 18
-1 29 12 38 15 10 18 28 19 92 1 43 7 84 12 89 13 13 15 47 3 47 -13 0 -42 69
-33 75 10 6 3 45 -8 45 -4 0 -14 -12 -23 -27z"/>
<path d="M3902 2398 c-29 -30 -33 -31 -44 -15 -17 22 -54 12 -62 -16 -3 -14 2
-29 16 -44 27 -29 34 -29 64 5 22 25 25 26 35 10 14 -25 41 -22 73 7 31 28 32
37 9 57 -35 31 -57 30 -91 -4z"/>
<path d="M4481 2333 c7 -10 15 -20 16 -22 2 -2 3 5 3 17 0 14 -6 22 -16 22
-14 0 -15 -3 -3 -17z"/>
<path d="M4032 2273 c-13 -22 6 -63 28 -63 20 0 42 43 34 65 -8 20 -51 19 -62
-2z"/>
<path d="M3818 2243 c-26 -7 -24 -60 2 -68 26 -8 50 11 50 40 0 18 -23 41 -33
34 -1 -1 -10 -3 -19 -6z"/>
<path d="M3903 2184 c-34 -53 -27 -83 17 -69 24 8 64 71 56 90 -10 28 -50 16
-73 -21z"/>
<path d="M4310 2045 c0 -9 5 -15 11 -13 6 2 11 8 11 13 0 5 -5 11 -11 13 -6 2
-11 -4 -11 -13z"/>
<path d="M3943 2024 c-7 -18 12 -64 26 -64 16 0 41 30 41 50 0 30 -56 42 -67
14z"/>
<path d="M3857 2014 c-12 -13 -7 -51 9 -64 13 -11 19 -10 37 8 17 18 19 26 11
40 -12 18 -45 28 -57 16z"/>
<path d="M3638 1658 c9 -9 15 -9 24 0 9 9 7 12 -12 12 -19 0 -21 -3 -12 -12z"/>
<path d="M3120 2521 c0 -5 14 -23 30 -39 17 -17 30 -35 30 -41 0 -14 17 -14
25 -1 4 6 11 7 17 4 7 -4 5 -10 -6 -16 -17 -10 -13 -50 7 -76 15 -19 14 -179
-1 -194 -7 -7 -12 -22 -12 -35 0 -12 -6 -26 -13 -30 -7 -4 -24 -26 -37 -48
-13 -21 -31 -47 -40 -56 -51 -56 -60 -68 -71 -92 -6 -14 -17 -23 -24 -20 -7 2
-36 -18 -63 -46 -28 -28 -56 -51 -63 -51 -7 0 -26 -10 -43 -23 -17 -13 -38
-27 -46 -31 -17 -8 -37 -20 -93 -55 -21 -13 -53 -27 -70 -32 -18 -5 -72 -20
-122 -34 -49 -14 -108 -27 -130 -29 -22 -2 -64 -9 -93 -15 -29 -6 -73 -8 -97
-4 -36 4 -45 3 -45 -9 0 -20 43 -38 91 -38 22 0 49 -5 60 -10 15 -8 21 -7 25
4 8 21 66 36 137 36 42 0 59 4 63 15 4 8 16 15 28 15 11 0 34 7 50 15 15 8 35
15 43 15 22 0 101 38 146 71 22 16 46 29 52 29 7 0 16 7 19 16 4 10 12 14 22
10 10 -4 27 7 48 29 18 19 47 38 64 41 25 5 30 11 29 32 -1 18 4 27 16 30 28
6 57 34 57 54 0 10 11 23 24 28 19 7 23 14 19 31 -5 19 -3 21 24 15 30 -7 30
-6 29 30 -1 21 4 39 12 41 6 3 12 -2 12 -11 0 -9 5 -16 10 -16 13 0 13 27 -1
35 -14 9 -1 67 19 81 10 8 13 21 9 45 -4 20 -1 43 7 58 10 18 11 31 2 53 -8
21 -7 33 2 49 11 17 11 24 -1 37 -8 10 -18 28 -22 42 -9 30 -34 60 -50 60 -7
0 -20 9 -30 20 -18 20 -55 28 -55 11z"/>
<path d="M2756 2405 c-39 -48 -60 -56 -70 -28 -12 31 -31 -5 -31 -59 0 -71
-17 -74 -60 -13 -11 16 -18 18 -31 9 -29 -17 -27 -30 10 -67 37 -35 47 -76 26
-107 -9 -13 -14 -11 -33 11 -22 25 -65 46 -145 70 -48 14 -57 10 -48 -24 9
-36 52 -77 88 -84 18 -3 43 -13 56 -21 21 -14 23 -22 22 -76 -3 -88 -3 -88 28
-84 20 2 28 9 30 28 7 56 24 90 56 110 18 11 41 20 50 20 49 0 176 118 176
163 0 22 -34 22 -59 0 -32 -29 -44 -37 -92 -60 -56 -28 -69 -29 -69 -4 0 22
104 81 144 81 16 0 26 5 26 15 0 12 -13 15 -56 15 -39 0 -54 4 -52 12 6 18 56
28 84 18 36 -14 76 4 72 33 -2 16 -11 23 -30 25 -26 3 -42 32 -18 32 6 0 10 7
10 15 0 32 -47 16 -84 -30z"/>
<path d="M3312 2309 c1 -13 8 -23 13 -21 15 3 12 35 -3 40 -9 3 -13 -3 -10
-19z"/>
<path d="M2836 2118 c-7 -31 13 -48 42 -37 15 6 22 17 22 34 0 21 -5 25 -29
25 -21 0 -30 -6 -35 -22z"/>
<path d="M2290 2045 c-13 -34 -3 -55 26 -55 17 0 28 8 36 26 11 22 10 28 -7
40 -28 20 -44 17 -55 -11z"/>
<path d="M2690 2000 c0 -26 3 -30 29 -30 21 0 30 6 34 22 8 30 1 38 -34 38
-26 0 -29 -3 -29 -30z"/>
<path d="M2678 1883 c-21 -5 -35 -50 -20 -65 5 -5 22 -8 38 -6 21 2 30 9 32
26 3 22 -13 53 -27 51 -3 -1 -14 -3 -23 -6z"/>
<path d="M2417 1854 c-12 -12 -8 -51 7 -64 8 -6 25 -10 38 -8 19 2 23 9 23 38
0 32 -3 35 -30 38 -17 2 -34 0 -38 -4z"/>
</g>
</svg>
