<?xml version="1.0" standalone="no"?>
<!DOCTYPE svg PUBLIC "-//W3C//DTD SVG 20010904//EN"
 "http://www.w3.org/TR/2001/REC-SVG-20010904/DTD/svg10.dtd">
<svg version="1.0" xmlns="http://www.w3.org/2000/svg"
 width="300.000000pt" height="300.000000pt" viewBox="0 0 300.000000 300.000000"
 preserveAspectRatio="xMidYMid meet">
<metadata>
Created by potrace 1.10, written by Peter Selinger 2001-2011
</metadata>
<g transform="translate(0.000000,300.000000) scale(0.100000,-0.100000)"
fill="#000000" stroke="none">
<path d="M1360 2296 c-176 -34 -316 -108 -435 -231 -120 -124 -192 -264 -221
-430 -24 -137 -11 -301 27 -331 14 -11 20 -13 119 -40 30 -8 64 -19 75 -24 11
-5 60 -27 108 -49 48 -22 130 -70 182 -106 116 -81 143 -91 90 -36 -87 92
-308 211 -470 254 -106 28 -102 21 -104 193 -4 434 333 774 769 774 436 0 773
-340 769 -774 -2 -172 2 -165 -104 -193 -156 -41 -372 -156 -469 -250 -64 -61
-25 -49 80 25 92 64 269 158 311 165 10 1 23 5 28 9 6 3 30 11 55 17 126 33
133 44 134 216 1 121 -18 251 -42 289 -3 6 -7 16 -8 21 -5 29 -86 163 -136
224 -109 134 -282 237 -463 277 -58 12 -231 13 -295 0z"/>
<path d="M1184 2029 c44 -48 81 -102 111 -161 50 -99 62 -154 16 -71 -34 62
-102 156 -108 150 -2 -3 12 -32 32 -65 49 -81 117 -250 151 -374 15 -57 29
-105 31 -108 9 -11 22 27 17 50 -10 46 -65 225 -75 242 -11 22 -12 78 -1 78 9
0 31 -56 38 -98 3 -15 9 -40 14 -57 11 -35 13 -48 56 -302 2 -18 9 -33 14 -33
25 0 -2 226 -46 390 -34 131 -92 246 -159 319 -48 51 -129 111 -150 111 -4 0
23 -32 59 -71z"/>
<path d="M1833 2078 c-121 -65 -214 -208 -268 -411 -29 -109 -55 -272 -55
-342 1 -48 1 -49 14 -25 8 14 16 45 19 70 3 25 6 47 6 49 1 2 8 -2 16 -9 9 -7
17 -11 18 -9 2 2 16 50 31 107 34 124 102 293 151 374 20 33 34 63 31 65 -6 6
-48 -51 -90 -122 -19 -33 -39 -65 -44 -70 -5 -6 -12 -22 -15 -35 -8 -36 -37
-122 -47 -140 -4 -9 -11 -36 -15 -60 -4 -25 -14 -56 -22 -70 -9 -16 -12 -18
-8 -5 4 11 9 36 11 55 12 100 62 266 80 263 6 -1 21 24 34 55 33 80 83 156
148 224 30 32 53 58 51 58 -2 0 -23 -10 -46 -22z"/>
<path d="M1094 1948 c59 -83 231 -404 222 -415 -1 -1 -27 21 -58 51 -64 60
-169 116 -275 145 -40 11 -73 18 -73 16 0 -2 42 -26 93 -52 69 -36 111 -67
170 -124 42 -42 78 -73 79 -70 0 3 2 11 2 16 2 12 14 14 36 8 34 -10 46 -22
60 -59 47 -123 59 -92 14 37 -66 190 -135 321 -225 423 -42 47 -75 64 -45 24z"/>
<path d="M1861 1924 c-58 -67 -107 -143 -151 -237 -44 -95 -112 -286 -107
-301 5 -16 57 77 57 103 0 12 6 24 13 27 8 3 14 10 14 17 0 32 157 329 219
415 30 40 -4 23 -45 -24z"/>
<path d="M2015 1729 c-97 -28 -201 -81 -263 -135 -52 -46 -73 -86 -33 -64 29
15 30 13 21 -20 -5 -16 -7 -30 -6 -30 1 0 40 37 87 83 65 63 105 93 177 130
50 26 92 50 92 52 0 3 -1 5 -2 4 -2 0 -34 -9 -73 -20z"/>
<path d="M842 1645 c3 -3 26 -20 51 -38 73 -52 191 -162 267 -248 39 -44 70
-76 70 -73 0 4 22 -18 49 -47 27 -30 52 -51 56 -47 11 11 -85 146 -164 231
-82 86 -163 148 -258 196 -58 29 -83 38 -71 26z"/>
<path d="M2074 1612 c-100 -53 -162 -101 -246 -190 -80 -86 -184 -232 -164
-232 13 0 52 39 79 80 10 13 17 21 17 16 0 -4 60 52 133 127 72 74 161 156
197 182 76 55 76 55 64 55 -5 0 -41 -17 -80 -38z"/>
<path d="M1090 1573 c82 -74 170 -185 221 -279 23 -41 45 -74 50 -74 26 0 -5
74 -73 173 -22 33 -37 65 -34 73 3 8 2 13 -3 10 -4 -3 -23 10 -41 29 -33 34
-161 125 -176 125 -4 0 21 -26 56 -57z"/>
<path d="M1915 1603 c-82 -53 -138 -108 -191 -189 -60 -91 -106 -183 -98 -196
9 -14 21 0 63 76 51 94 139 205 221 279 68 61 70 72 5 30z"/>
<path d="M835 1378 c160 -39 365 -123 365 -149 0 -12 -17 -12 -25 0 -7 12
-215 94 -221 88 -3 -2 29 -20 69 -40 111 -52 184 -102 265 -180 41 -40 72 -64
72 -55 0 14 -33 65 -51 78 -4 3 -27 24 -53 48 -39 36 -47 49 -49 85 -3 41 -4
42 -62 66 -66 26 -273 71 -320 70 -28 -1 -27 -2 10 -11z"/>
<path d="M2025 1366 c-102 -22 -200 -53 -234 -75 -12 -8 -12 -12 -2 -25 11
-13 11 -19 1 -31 -9 -10 -9 -15 -1 -15 6 0 11 4 11 9 0 26 205 110 365 149
l40 10 -35 0 c-19 1 -84 -10 -145 -22z"/>
<path d="M2005 1308 c-175 -61 -312 -156 -360 -249 -23 -44 -5 -35 60 32 71
71 162 135 269 185 90 43 104 58 31 32z"/>
</g>
</svg>
